<svg xmlns="http://www.w3.org/2000/svg" xmlns:xlink="http://www.w3.org/1999/xlink" width="800" zoomAndPan="magnify" viewBox="0 0 600 1499.999933" height="2000" preserveAspectRatio="xMidYMid meet" version="1.0"><defs><g/><clipPath id="c3fe341a2f"><path d="M 216 639.601562 L 408 639.601562 L 408 844 L 216 844 Z M 216 639.601562 " clip-rule="nonzero"/></clipPath><clipPath id="f7308abe10"><path d="M 180 740 L 273 740 L 273 860.101562 L 180 860.101562 Z M 180 740 " clip-rule="nonzero"/></clipPath></defs><g clip-path="url(#c3fe341a2f)"><path fill="#fad02c" d="M 375.820312 731.386719 L 407.503906 731.386719 L 407.503906 714.035156 C 407.503906 704.226562 399.457031 696.433594 389.902344 696.433594 L 389.902344 686.375 C 389.902344 673.800781 379.589844 663.488281 367.015625 663.488281 L 340.863281 663.488281 L 323.765625 639.601562 L 290.316406 663.488281 L 239.269531 663.488281 C 226.945312 663.488281 216.886719 673.046875 216.386719 685.117188 C 216.386719 685.871094 216.386719 686.625 216.386719 686.625 L 216.386719 737.675781 C 217.894531 735.914062 219.402344 734.152344 221.414062 732.644531 C 223.679688 730.632812 226.445312 729.628906 229.460938 729.628906 C 232.984375 729.628906 236.25 731.136719 238.515625 733.902344 C 240.777344 736.417969 241.785156 739.9375 241.28125 743.457031 C 240.777344 746.476562 241.03125 750.5 241.785156 754.269531 C 243.292969 753.515625 245.304688 753.015625 247.066406 753.015625 C 250.335938 753.015625 253.351562 754.269531 255.613281 756.785156 C 264.667969 766.089844 269.195312 776.902344 268.941406 788.722656 C 272.210938 789.476562 274.976562 791.238281 276.738281 794.253906 C 277.746094 796.015625 278.75 797.777344 279.503906 799.535156 C 285.792969 813.617188 285.289062 829.714844 277.746094 843.292969 L 386.882812 843.292969 C 398.199219 843.292969 407.757812 833.988281 407.757812 822.421875 L 407.757812 803.308594 L 375.820312 803.308594 C 362.492188 803.308594 351.675781 792.496094 351.675781 779.167969 L 351.675781 755.527344 C 351.675781 742.199219 362.492188 731.386719 375.820312 731.386719 Z M 244.550781 696.433594 L 239.269531 696.433594 C 233.738281 696.433594 229.210938 691.90625 229.210938 686.375 C 229.210938 680.839844 233.738281 676.316406 239.269531 676.316406 L 272.464844 676.316406 Z M 266.429688 696.433594 L 320.746094 657.453125 L 348.660156 696.433594 Z M 349.917969 676.316406 L 367.015625 676.316406 C 372.550781 676.316406 377.078125 680.839844 377.078125 686.375 L 377.078125 696.433594 L 364.503906 696.433594 Z M 349.917969 676.316406 " fill-opacity="1" fill-rule="nonzero"/></g><path fill="#fad02c" d="M 414.546875 740.441406 L 375.820312 740.441406 C 367.519531 740.441406 360.730469 747.230469 360.730469 755.527344 L 360.730469 779.167969 C 360.730469 787.464844 367.519531 794.253906 375.820312 794.253906 L 414.546875 794.253906 C 417.3125 794.253906 419.828125 791.992188 419.828125 788.976562 L 419.828125 745.722656 C 419.828125 742.703125 417.5625 740.441406 414.546875 740.441406 Z M 384.117188 778.414062 C 378.082031 778.414062 373.054688 773.382812 373.054688 767.347656 C 373.054688 761.3125 378.082031 756.28125 384.117188 756.28125 C 390.152344 756.28125 395.183594 761.3125 395.183594 767.347656 C 394.929688 773.382812 390.152344 778.414062 384.117188 778.414062 Z M 384.117188 778.414062 " fill-opacity="1" fill-rule="nonzero"/><g clip-path="url(#f7308abe10)"><path fill="#fad02c" d="M 267.183594 799.789062 C 266.679688 798.78125 265.171875 799.285156 265.171875 800.289062 C 264.417969 810.351562 259.890625 815.128906 256.871094 817.894531 C 252.847656 821.414062 250.082031 817.640625 255.613281 801.546875 C 261.652344 783.441406 254.609375 771.621094 247.566406 764.332031 C 246.8125 763.574219 245.554688 764.332031 245.808594 765.335938 C 248.324219 780.171875 238.515625 787.71875 238.515625 787.71875 C 238.515625 787.71875 240.527344 779.921875 233.988281 766.59375 C 230.71875 759.550781 229.210938 749.746094 230.214844 742.199219 C 230.46875 741.195312 229.210938 740.441406 228.457031 741.195312 C 211.605469 756.03125 213.367188 781.933594 213.367188 781.933594 C 208.839844 778.414062 204.0625 772.378906 199.789062 764.078125 C 199.285156 763.324219 198.28125 763.074219 197.777344 764.078125 C 192.746094 776.148438 197.273438 795.765625 199.285156 804.0625 C 201.546875 812.863281 201.046875 816.132812 196.015625 812.863281 C 190.484375 809.34375 186.964844 802.300781 185.453125 798.277344 C 185.203125 797.273438 183.695312 797.523438 183.441406 798.277344 C 180.425781 807.332031 180.171875 816.636719 181.429688 825.1875 C 184.449219 845.554688 202.050781 860.394531 222.421875 860.394531 L 230.71875 860.394531 C 260.140625 860.394531 281.515625 830.46875 269.445312 803.8125 C 268.691406 802.554688 267.9375 801.046875 267.183594 799.789062 Z M 267.183594 799.789062 " fill-opacity="1" fill-rule="nonzero"/></g><g fill="#fad02c" fill-opacity="1"><g transform="translate(299.999988, 752.946608)"><g><path d="M 10.640625 0.390625 C 9.140625 0.390625 7.953125 -0.03125 7.078125 -0.875 C 6.210938 -1.71875 5.78125 -2.835938 5.78125 -4.234375 C 5.78125 -5.609375 6.210938 -6.734375 7.078125 -7.609375 C 7.953125 -8.492188 9.140625 -8.9375 10.640625 -8.9375 C 12.171875 -8.9375 13.367188 -8.515625 14.234375 -7.671875 C 15.109375 -6.828125 15.546875 -5.707031 15.546875 -4.3125 C 15.546875 -2.914062 15.101562 -1.78125 14.21875 -0.90625 C 13.332031 -0.0390625 12.140625 0.390625 10.640625 0.390625 Z M 10.640625 0.390625 "/></g></g></g></svg>