<svg xmlns="http://www.w3.org/2000/svg" xmlns:xlink="http://www.w3.org/1999/xlink" width="500" zoomAndPan="magnify" viewBox="0 0 375 374.999991" height="500" preserveAspectRatio="xMidYMid meet" version="1.0"><defs><clipPath id="ae9de9e2c6"><path d="M 112.5 112.5 L 262.5 112.5 L 262.5 262.5 L 112.5 262.5 Z M 112.5 112.5 " clip-rule="nonzero"/></clipPath><clipPath id="9312df343d"><path d="M 155.203125 168.164062 L 206 168.164062 L 206 245.414062 L 155.203125 245.414062 Z M 155.203125 168.164062 " clip-rule="nonzero"/></clipPath></defs><g clip-path="url(#ae9de9e2c6)"><path fill="#ffffff" d="M 245.191406 147.117188 C 245.191406 147.117188 145.042969 147.117188 127.777344 147.117188 C 122.710938 147.117188 118.210938 146.101562 118.210938 141.347656 L 245.191406 135.578125 L 245.191406 124.039062 C 245.191406 114.484375 237.4375 112.5 227.882812 112.5 L 124.160156 129.808594 C 114.917969 131.863281 112.5 135.777344 112.5 141.347656 L 112.5 245.191406 C 112.5 254.746094 120.253906 262.5 129.808594 262.5 L 245.191406 262.5 C 254.746094 262.5 262.5 254.746094 262.5 245.191406 L 262.5 164.421875 C 262.5 154.871094 254.746094 147.117188 245.191406 147.117188 Z M 239.421875 216.347656 C 233.054688 216.347656 227.882812 211.175781 227.882812 204.808594 C 227.882812 198.4375 233.054688 193.269531 239.421875 193.269531 C 245.792969 193.269531 250.960938 198.4375 250.960938 204.808594 C 250.960938 211.175781 245.792969 216.347656 239.421875 216.347656 Z M 239.421875 216.347656 " fill-opacity="1" fill-rule="nonzero"/></g><g clip-path="url(#9312df343d)"><path fill="#ffffff" d="M 190.042969 191.332031 L 202.929688 191.332031 C 203.992188 191.332031 204.902344 191.890625 205.378906 192.839844 C 205.855469 193.789062 205.761719 194.851562 205.128906 195.703125 L 171.070312 241.523438 C 170.800781 241.882812 170.5 242.136719 170.09375 242.339844 L 164.667969 245.054688 C 163.863281 245.453125 163 245.449219 162.195312 245.046875 L 160.015625 243.933594 C 158.808594 243.324219 158.234375 241.960938 158.640625 240.675781 L 166.667969 215.085938 L 158.484375 215.085938 C 157.617188 215.085938 156.882812 214.730469 156.339844 214.058594 C 155.804688 213.390625 155.617188 212.589844 155.804688 211.753906 L 164.40625 173.066406 C 164.59375 172.230469 165.089844 171.59375 165.855469 171.207031 L 171.285156 168.496094 C 171.695312 168.292969 172.082031 168.203125 172.535156 168.203125 L 199.71875 168.433594 C 200.75 168.445312 201.621094 168.96875 202.113281 169.867188 C 202.597656 170.765625 202.558594 171.789062 202.011719 172.648438 L 190.042969 191.332031 " fill-opacity="1" fill-rule="evenodd"/></g><path fill="#000000" d="M 173.511719 170.953125 L 199.699219 171.175781 L 185.035156 194.070312 L 202.929688 194.070312 L 168.871094 239.890625 L 163.441406 242.601562 L 161.253906 241.492188 L 170.40625 212.347656 L 158.484375 212.347656 L 167.082031 173.660156 L 172.511719 170.941406 L 173.511719 170.953125 " fill-opacity="1" fill-rule="evenodd"/><path fill="#f4bc21" d="M 197.441406 172.394531 L 173.507812 172.191406 L 165.457031 208.386719 L 177.527344 208.386719 L 167.871094 239.148438 L 200.457031 195.316406 L 182.757812 195.316406 L 197.441406 172.394531 " fill-opacity="1" fill-rule="evenodd"/></svg>